# xmcd CD database file
#
# Track frame offsets:
#	150
#	9520
#	24049
#	35524
#	52882
#	63655
#	77455
#	91412
#	108649
#	122993
#	136947
#	156352
#	170764
#	186109
#	201043
#	215034
#	229051
#
# Disc length: 3297 seconds
#
# Revision: 0
# Processed by: cddbd v1.5.2PL0 Copyright (c) Steve Scherf et al.
# Submitted via: ACXtractor (MTCDDB.DLL V2003.07.15)
#
DISCID=e50cdf11
DTITLE=Pete Smith - Nulla Nulla Winds
DYEAR=2012
DGENRE=Country
TTITLE0=The Singing Waterfall
TTITLE1=Beauty of Our Land
TTITLE2=The Rodeo is On
TTITLE3=The Bushland that I Love
TTITLE4=An Old Hillbillie from Wayback
TTITLE5=Rockin' Over the River
TTITLE6=The Ellensbrough Falls
TTITLE7=Rollin' Wagons
TTITLE8=Picture on the Wall
TTITLE9=The Track I Travel Each Evening in my Mind
TTITLE10=Bygone Trucking Days
TTITLE11=A Little Drop of Squeaky Top
TTITLE12=The Singing Wanderer Medley
TTITLE13=Mandrake
TTITLE14=White Crosses
TTITLE15=Warwick Rodeo
TTITLE16=Sunday Calling
EXTD=ID3G:   2 YEAR: 2012
EXTT0=
EXTT1=
EXTT2=
EXTT3=
EXTT4=
EXTT5=
EXTT6=
EXTT7=
EXTT8=
EXTT9=
EXTT10=
EXTT11=
EXTT12=
EXTT13=
EXTT14=
EXTT15=
EXTT16=
PLAYORDER=
